<!-- icon666.com - MILLIONS vector ICONS FREE --><svg viewBox="0 0 64 64" xmlns="http://www.w3.org/2000/svg"><g id="Layer_73" data-name="Layer 73"><path d="m32 3.4a28.59 28.59 0 0 0 -28.6 28.6 28.59 28.59 0 0 0 28.6 28.6 28.59 28.59 0 0 0 28.6-28.6 28.59 28.59 0 0 0 -28.6-28.6zm-5.62 30 .08-.28a.55.55 0 0 0 .31-.34l4.49-15.48a.62.62 0 0 0 -.41-.75 4.15 4.15 0 0 1 -3-4.32 4.23 4.23 0 0 1 4.07-3.8 4.13 4.13 0 0 1 3 1.2 4.08 4.08 0 0 1 1.23 2.95 4.15 4.15 0 0 1 -3 4 .62.62 0 0 0 -.41.75l4.49 15.48a.58.58 0 0 0 .31.34l.08.28.2-.21a.57.57 0 0 0 .43-.17l8.4-9.11a.6.6 0 0 0 .16-.43.58.58 0 0 0 -.2-.41 4.2 4.2 0 0 1 -1.26-3.91 4.13 4.13 0 0 1 3.12-3.19 4.22 4.22 0 0 1 3.54.81 4.15 4.15 0 0 1 -2.6 7.38.6.6 0 0 0 -.6.6v24.21a2.57 2.57 0 0 1 -2.56 2.57h-28.5a2.57 2.57 0 0 1 -2.56-2.57v-24.23a.6.6 0 0 0 -.6-.6 4.13 4.13 0 0 1 -3.22-1.54 4.19 4.19 0 0 1 -.83-3.51 4.11 4.11 0 0 1 3.15-3.12 4.48 4.48 0 0 1 .89-.09 4.15 4.15 0 0 1 2.81 7.2.58.58 0 0 0 -.2.41.6.6 0 0 0 .16.43l8.4 9.05a.54.54 0 0 0 .43.17z" fill="#33d9b2"/></g></svg>