<svg width="47" height="47" viewBox="0 0 47 47" fill="none" xmlns="http://www.w3.org/2000/svg">
    <path d="M23.5 0.470001C26.6302 0.470001 29.6147 1.0763 32.4535 2.2936C35.2923 3.5109 37.741 5.1465 39.7996 7.2004C41.8535 9.2543 43.4891 11.703 44.7064 14.5465C45.9237 17.39 46.53 20.3698 46.53 23.5C46.53 26.6302 45.9237 29.6147 44.7064 32.4535C43.4891 35.2923 41.8535 37.741 39.7996 39.7996C37.7457 41.8582 35.297 43.4891 32.4535 44.7064C29.6147 45.9237 26.6302 46.53 23.5 46.53C20.3698 46.53 17.3853 45.9237 14.5465 44.7064C11.7077 43.4891 9.25897 41.8535 7.20037 39.7996C5.14177 37.7457 3.51087 35.297 2.29357 32.4535C1.07627 29.6147 0.469971 26.6302 0.469971 23.5C0.469971 20.3698 1.07627 17.3853 2.29357 14.5465C3.51087 11.7077 5.14647 9.259 7.20037 7.2004C9.25427 5.1465 11.703 3.5109 14.5465 2.2936C17.3853 1.0763 20.3698 0.470001 23.5 0.470001ZM23.5 4.6577C20.9479 4.6577 18.5086 5.1559 16.1821 6.1523C13.8556 7.1487 11.8487 8.4882 10.1708 10.1661C8.49287 11.844 7.15337 13.8509 6.15697 16.1774C5.15587 18.5086 4.65767 20.9479 4.65767 23.5C4.65767 26.0521 5.15587 28.4914 6.15227 30.8179C7.14867 33.1444 8.48817 35.1513 10.1661 36.8292C11.844 38.5071 13.8509 39.8466 16.1774 40.843C18.5039 41.8394 20.9432 42.3376 23.4953 42.3376C26.0474 42.3376 28.4867 41.8394 30.8132 40.843C33.1397 39.8466 35.1466 38.5071 36.8245 36.8292C38.5024 35.1513 39.8419 33.1444 40.8383 30.8179C41.8347 28.4914 42.3329 26.0521 42.3329 23.5C42.3329 20.9479 41.8347 18.5086 40.8383 16.1821C39.8419 13.8556 38.5024 11.8487 36.8245 10.1708C35.1466 8.4929 33.1397 7.1534 30.8132 6.157C28.4914 5.1559 26.0521 4.6577 23.5 4.6577ZM23.5 8.8454C24.0781 8.8454 24.5716 9.0522 24.9805 9.4611C25.3894 9.87 25.5962 10.3635 25.5962 10.9416V22.6352L31.2691 28.294C31.6733 28.6982 31.8754 29.1917 31.8754 29.7839C31.8754 30.3761 31.6733 30.8696 31.2691 31.2738C30.8649 31.678 30.3714 31.8801 29.7792 31.8801C29.1917 31.8801 28.6935 31.678 28.2893 31.2738L22.0101 24.9899C21.6059 24.5857 21.4038 24.0922 21.4038 23.5V10.9369C21.4038 10.3588 21.6106 9.8653 22.0195 9.4564C22.4284 9.0475 22.9219 8.8454 23.5 8.8454Z" fill="white"/>
</svg>