<svg width="48" height="48" viewBox="0 0 48 48" fill="none" xmlns="http://www.w3.org/2000/svg">
    <path d="M20.64 35.04L37.56 18.12L34.2 14.76L20.64 28.32L13.8 21.48L10.44 24.84L20.64 35.04ZM24 48C20.68 48 17.56 47.3696 14.64 46.1088C11.72 44.8496 9.18 43.14 7.02 40.98C4.86 38.82 3.1504 36.28 1.8912 33.36C0.6304 30.44 0 27.32 0 24C0 20.68 0.6304 17.56 1.8912 14.64C3.1504 11.72 4.86 9.18 7.02 7.02C9.18 4.86 11.72 3.1496 14.64 1.8888C17.56 0.6296 20.68 0 24 0C27.32 0 30.44 0.6296 33.36 1.8888C36.28 3.1496 38.82 4.86 40.98 7.02C43.14 9.18 44.8496 11.72 46.1088 14.64C47.3696 17.56 48 20.68 48 24C48 27.32 47.3696 30.44 46.1088 33.36C44.8496 36.28 43.14 38.82 40.98 40.98C38.82 43.14 36.28 44.8496 33.36 46.1088C30.44 47.3696 27.32 48 24 48ZM24 43.2C29.36 43.2 33.9 41.34 37.62 37.62C41.34 33.9 43.2 29.36 43.2 24C43.2 18.64 41.34 14.1 37.62 10.38C33.9 6.66 29.36 4.8 24 4.8C18.64 4.8 14.1 6.66 10.38 10.38C6.66 14.1 4.8 18.64 4.8 24C4.8 29.36 6.66 33.9 10.38 37.62C14.1 41.34 18.64 43.2 24 43.2Z" fill="white"/>
</svg>